<svg width="199" height="42" fill="none" xmlns="http://www.w3.org/2000/svg"><path d="M199 3.309H0V0h199v3.31Z" fill="url(#a)"/><path d="M199 41.628H0v-3.309h199v3.309Z" fill="url(#b)"/><path d="M19.169 10.794H6.305v1.38h5.325V29.5h2.186V12.175h5.353v-1.38Zm10.732 1.267c2.647 0 4.032 1.466 4.032 4.548 0 3.538-1.412 4.66-3.774 4.66h-2.33v-9.208h2.072Zm.258-1.267h-4.515V29.5h2.185v-6.937h2.85l4.29 6.937h2.502l-4.692-7.34c1.9-.746 3.453-2.502 3.453-5.637 0-3.715-2.299-5.729-6.073-5.729ZM55.43 28.12h-8.52v-7.425h7.222v-1.326H46.91v-7.194h7.887v-1.38H44.725V29.5H55.43v-1.38Zm20.774-17.326h-1.58v14.733l.086.692-9.556-15.425h-2.271V29.5h1.583V14.45l-.144-.895h.027L74.308 29.5h1.895V10.794Zm14.678 1.381c4 0 6.131 2.56 6.131 8.031 0 5.439-2.131 7.914-6.104 7.914h-3.538V12.174h3.511ZM85.185 29.5h5.697c5.412 0 8.489-3.222 8.489-9.294 0-6.131-3.163-9.412-8.489-9.412h-5.697V29.5Zm50.619-18.706h-2.534l-6.588 16.027h-.027l-6.593-16.027h-2.674l.027.086-.059-.086-.085 18.706h1.583l.059-16.031 6.502 16.03h1.756l6.475-16.03h.027l.086 16.03h2.131l-.086-18.705Zm14.217 1.67 3.253 10.1h-6.565l3.312-10.1Zm-.892-1.67L142.826 29.5h1.525l1.955-5.756h7.339l1.959 5.756h2.272l-6.186-18.706h-2.561Zm26.158 17.326h-8.316V10.794h-2.186V29.5h10.502v-1.38Zm17.122 0h-8.316V10.794h-2.186V29.5h10.502v-1.38Z" fill="#7B52AB"/><defs><linearGradient id="a" x1="0" y1="3.309" x2="198.889" y2="-3.335" gradientUnits="userSpaceOnUse"><stop stop-color="#0DF"/><stop offset="1" stop-color="#FF00D4"/></linearGradient><linearGradient id="b" x1="0" y1="41.628" x2="198.889" y2="34.984" gradientUnits="userSpaceOnUse"><stop stop-color="#0DF"/><stop offset="1" stop-color="#FF00D4"/></linearGradient></defs></svg>