<svg width="15" height="15" fill="none" xmlns="http://www.w3.org/2000/svg"><g clip-path="url(#a)" fill="#fff"><path d="M13.978 8.611c.416-3.505-.2-5.718-1.313-6.72h.001C10.871.181 4.81-.07 2.662 1.968c-.964.997-1.304 2.461-1.341 4.274-.037 1.813-.082 5.209 3.083 6.13h.003l-.003 1.407s-.022.57.343.685c.416.135.604-.13 1.9-1.677 2.166.188 3.83-.243 4.018-.306.438-.146 2.913-.474 3.313-3.87ZM6.86 11.797s-1.37 1.71-1.797 2.153c-.14.144-.293.13-.29-.155l.01-2.336C2.1 10.69 2.258 7.799 2.287 6.285c.03-1.513.306-2.753 1.123-3.587 1.884-1.767 7.198-1.372 8.552-.1 1.656 1.468 1.066 5.614 1.07 5.756-.34 2.835-2.346 3.014-2.714 3.137-.158.052-1.621.429-3.458.306Z"/><path d="M7.619 3.03c-.224 0-.224.349 0 .352 1.737.013 3.168 1.224 3.184 3.445 0 .235.343.232.34-.003-.02-2.393-1.582-3.78-3.524-3.794Z"/><path d="M9.904 6.46c-.005.23.337.242.34.007.029-1.32-.785-2.407-2.314-2.521-.224-.016-.247.335-.024.352 1.326.1 2.025 1.005 1.998 2.161Zm-.367 1.5c-.287-.166-.58-.063-.7.1l-.253.328c-.129.167-.37.145-.37.145-1.752-.464-2.221-2.298-2.221-2.298s-.022-.249.139-.382l.316-.262c.159-.125.259-.428.097-.725-.43-.778-.719-1.046-.866-1.252-.155-.193-.387-.237-.63-.106h-.005c-.503.294-1.054.845-.877 1.412.3.598.853 2.504 2.614 3.944.828.681 2.138 1.38 2.694 1.54l.005.008c.548.183 1.08-.39 1.365-.908V9.5c.126-.25.084-.488-.1-.643a6.858 6.858 0 0 0-1.208-.897Z"/><path d="M8.17 5.244c.559.033.83.325.859.924.01.235.35.218.34-.016-.037-.783-.446-1.22-1.18-1.26-.225-.013-.246.339-.02.352Z"/></g><defs><clipPath id="a"><path fill="#fff" transform="translate(.51 .53)" d="M0 0h13.959v13.959H0z"/></clipPath></defs></svg>