<svg width="13" height="13" fill="none" xmlns="http://www.w3.org/2000/svg"><g clip-path="url(#a)"><path d="m.403 6.289 2.859 1.067 1.106 3.559c.071.228.35.312.535.16l1.594-1.298a.475.475 0 0 1 .58-.017l2.874 2.087a.337.337 0 0 0 .528-.203l2.105-10.13a.337.337 0 0 0-.45-.382L.398 5.658a.337.337 0 0 0 .004.63Zm3.787.499 5.588-3.442c.1-.061.204.075.117.155L5.284 7.787a.956.956 0 0 0-.296.572L4.83 9.523c-.021.156-.24.171-.283.02l-.604-2.122a.563.563 0 0 1 .246-.633Z" fill="#fff"/></g><defs><clipPath id="a"><path fill="#fff" transform="translate(.184 .306)" d="M0 0h12.408v12.408H0z"/></clipPath></defs></svg>