<svg width="20" height="19" fill="none" xmlns="http://www.w3.org/2000/svg"><path d="M9.782 6.193A3.176 3.176 0 0 0 6.6 9.374a3.176 3.176 0 0 0 3.18 3.182 3.176 3.176 0 0 0 3.182-3.182c0-1.76-1.42-3.18-3.181-3.18Zm0 5.25a2.072 2.072 0 0 1-2.068-2.069 2.07 2.07 0 0 1 2.068-2.068 2.07 2.07 0 0 1 2.068 2.068c0 1.141-.93 2.069-2.068 2.069Zm4.053-5.38a.74.74 0 0 1-.742.742.742.742 0 1 1 .742-.742Zm2.107.753c-.047-.994-.274-1.874-1.002-2.6-.725-.725-1.606-.952-2.6-1.002-1.024-.058-4.095-.058-5.12 0-.99.047-1.871.274-2.6 1-.727.725-.952 1.605-1.001 2.6-.059 1.024-.059 4.094 0 5.119.047.994.274 1.874 1.002 2.6.728.725 1.606.952 2.6 1.002 1.024.058 4.095.058 5.12 0 .993-.047 1.874-.274 2.599-1.002.725-.726.952-1.606 1.002-2.6.058-1.025.058-4.092 0-5.117Zm-1.323 6.216c-.216.543-.634.96-1.18 1.18-.816.323-2.755.249-3.657.249-.903 0-2.844.072-3.658-.25a2.094 2.094 0 0 1-1.18-1.179c-.323-.817-.248-2.755-.248-3.658 0-.902-.072-2.843.249-3.657.216-.543.634-.96 1.18-1.18.816-.323 2.754-.249 3.657-.249.902 0 2.843-.072 3.657.25.543.215.961.634 1.18 1.179.324.817.249 2.755.249 3.657 0 .903.075 2.844-.25 3.658Z" fill="#fff"/></svg>