<svg width="20" height="19" viewBox="0 0 20 19" fill="none" xmlns="http://www.w3.org/2000/svg">
<path d="M9.7818 6.19319C8.02087 6.19319 6.6005 7.61356 6.6005 9.37449C6.6005 11.1354 8.02087 12.5558 9.7818 12.5558C11.5427 12.5558 12.9631 11.1354 12.9631 9.37449C12.9631 7.61356 11.5427 6.19319 9.7818 6.19319ZM9.7818 11.4427C8.64384 11.4427 7.71354 10.5152 7.71354 9.37449C7.71354 8.23377 8.64107 7.30623 9.7818 7.30623C10.9225 7.30623 11.8501 8.23377 11.8501 9.37449C11.8501 10.5152 10.9198 11.4427 9.7818 11.4427ZM13.8353 6.06306C13.8353 6.47561 13.503 6.80509 13.0932 6.80509C12.6807 6.80509 12.3512 6.47284 12.3512 6.06306C12.3512 5.65329 12.6835 5.32104 13.0932 5.32104C13.503 5.32104 13.8353 5.65329 13.8353 6.06306ZM15.9423 6.81616C15.8952 5.82218 15.6682 4.94172 14.94 4.21631C14.2146 3.49089 13.3341 3.26386 12.3401 3.21402C11.3157 3.15587 8.24514 3.15587 7.22071 3.21402C6.22949 3.26109 5.34903 3.48812 4.62085 4.21354C3.89267 4.93895 3.6684 5.81941 3.61856 6.8134C3.56042 7.83783 3.56042 10.9084 3.61856 11.9328C3.66563 12.9268 3.89267 13.8073 4.62085 14.5327C5.34903 15.2581 6.22672 15.4851 7.22071 15.535C8.24514 15.5931 11.3157 15.5931 12.3401 15.535C13.3341 15.4879 14.2146 15.2609 14.94 14.5327C15.6654 13.8073 15.8924 12.9268 15.9423 11.9328C16.0004 10.9084 16.0004 7.8406 15.9423 6.81616ZM14.6188 13.032C14.4028 13.5747 13.9848 13.9928 13.4393 14.2115C12.6225 14.5354 10.6844 14.4607 9.7818 14.4607C8.87919 14.4607 6.93829 14.5327 6.12428 14.2115C5.5816 13.9955 5.16352 13.5775 4.94479 13.032C4.62085 12.2152 4.6956 10.2771 4.6956 9.37449C4.6956 8.47188 4.62362 6.53098 4.94479 5.71697C5.16075 5.17429 5.57884 4.75621 6.12428 4.53748C6.94106 4.21354 8.87919 4.28829 9.7818 4.28829C10.6844 4.28829 12.6253 4.21631 13.4393 4.53748C13.982 4.75344 14.4001 5.17153 14.6188 5.71697C14.9428 6.53375 14.868 8.47188 14.868 9.37449C14.868 10.2771 14.9428 12.218 14.6188 13.032Z" fill="white"/>
</svg>
