<svg width="13" height="13" viewBox="0 0 13 13" fill="none" xmlns="http://www.w3.org/2000/svg">
<g clip-path="url(#clip0_522_20229)">
<path d="M0.402758 6.28882L3.26185 7.35592L4.36849 10.9149C4.4393 11.1428 4.71803 11.2271 4.90303 11.0758L6.49674 9.77659C6.66379 9.64047 6.90174 9.63369 7.07632 9.76042L9.9508 11.8473C10.1487 11.9912 10.4291 11.8828 10.4787 11.6436L12.5844 1.51478C12.6386 1.25355 12.3819 1.03562 12.1332 1.13182L0.399408 5.65836C0.109843 5.77004 0.112366 6.18 0.402758 6.28882ZM4.19014 6.78788L9.77787 3.34639C9.87829 3.28472 9.98161 3.42051 9.89537 3.5005L5.28388 7.78711C5.12179 7.93799 5.01723 8.13991 4.98762 8.35908L4.83053 9.52322C4.80972 9.67865 4.59138 9.69408 4.54849 9.54365L3.94434 7.42082C3.87514 7.17869 3.97598 6.92007 4.19014 6.78788Z" fill="white"/>
</g>
<defs>
<clipPath id="clip0_522_20229">
<rect width="12.4082" height="12.4082" fill="white" transform="translate(0.183594 0.306152)"/>
</clipPath>
</defs>
</svg>
