<svg width="15" height="15" viewBox="0 0 15 15" fill="none" xmlns="http://www.w3.org/2000/svg">
<g clip-path="url(#clip0_522_20240)">
<path d="M13.9777 8.61125C14.3941 5.10575 13.7776 2.89264 12.6655 1.89165L12.6661 1.89107C10.8712 0.181652 4.80939 -0.0713584 2.662 1.96785C1.69766 2.96535 1.35798 4.42932 1.32076 6.24168C1.28353 8.05463 1.23933 11.4508 4.40399 12.3721H4.4069L4.40399 13.7791C4.40399 13.7791 4.38247 14.3491 4.74657 14.4636C5.16302 14.5986 5.35147 14.3339 6.64677 12.7868C8.81277 12.9747 10.4762 12.5443 10.6653 12.4814C11.1027 12.3349 13.5775 12.0074 13.9777 8.61125ZM6.86023 11.7969C6.86023 11.7969 5.48932 13.5063 5.06298 13.9501C4.92339 14.0943 4.77042 14.0809 4.77275 13.7948C4.77275 13.6069 4.78322 11.4589 4.78322 11.4589C2.10015 10.69 2.25835 7.79813 2.28743 6.28531C2.31651 4.7719 2.59337 3.53244 3.40998 2.6978C5.29389 0.931377 10.6083 1.32631 11.9623 2.59892C13.6176 4.06638 13.0284 8.21226 13.0319 8.35359C12.6917 11.1885 10.6862 11.3682 10.3175 11.4909C10.1598 11.5433 8.69702 11.9196 6.86023 11.7969Z" fill="white"/>
<path d="M7.61863 3.02979C7.3947 3.02979 7.3947 3.37876 7.61863 3.38167C9.35597 3.39505 10.7868 4.60601 10.8025 6.82727C10.8025 7.06166 11.1457 7.05876 11.1427 6.82436H11.1422C11.1235 4.43094 9.56128 3.04316 7.61863 3.02979Z" fill="white"/>
<path d="M9.90393 6.4591C9.8987 6.69058 10.2413 6.70164 10.2442 6.46724C10.2727 5.14751 9.45899 4.06044 7.92987 3.94586C7.70594 3.92957 7.68268 4.28146 7.90603 4.29775C9.23215 4.39837 9.93069 5.30339 9.90393 6.4591Z" fill="white"/>
<path d="M9.53742 7.96021C9.25009 7.79387 8.95753 7.8974 8.83655 8.06083L8.58354 8.38829C8.455 8.55464 8.21479 8.53254 8.21479 8.53254C6.46175 8.06898 5.99295 6.23451 5.99295 6.23451C5.99295 6.23451 5.97143 5.98615 6.13196 5.85296L6.44837 5.59122C6.60658 5.46559 6.70662 5.16314 6.5455 4.86593C6.1151 4.08829 5.82603 3.82015 5.67887 3.61425C5.52416 3.42057 5.29151 3.37695 5.04955 3.50782H5.04431C4.5412 3.80212 3.99039 4.35293 4.16663 4.92002C4.46733 5.51794 5.01988 7.42395 6.78107 8.86407C7.60873 9.54516 8.91856 10.2431 9.4746 10.4042L9.47984 10.4124C10.0277 10.595 10.5605 10.0227 10.8449 9.50445V9.50038C10.9711 9.24969 10.9293 9.01239 10.7449 8.85709C10.418 8.53836 9.92479 8.18647 9.53742 7.96021Z" fill="white"/>
<path d="M8.1696 5.24411C8.72855 5.27668 8.99959 5.56866 9.02867 6.16832C9.03914 6.40272 9.3794 6.38643 9.36893 6.15203C9.3317 5.36916 8.9234 4.93293 8.18822 4.89222C7.96429 4.87884 7.94335 5.23073 8.1696 5.24411Z" fill="white"/>
</g>
<defs>
<clipPath id="clip0_522_20240">
<rect width="13.9592" height="13.9592" fill="white" transform="translate(0.51001 0.530518)"/>
</clipPath>
</defs>
</svg>
